<?xml version="1.0" encoding="UTF-8" standalone="no"?>
<!DOCTYPE svg PUBLIC "-//W3C//DTD SVG 1.1//EN"
 "http://www.w3.org/Graphics/SVG/1.1/DTD/svg11.dtd">
<!-- Generated by graphviz version 2.47.0 (20210316.0004)
 -->
<!-- Title: dependencies Pages: 1 -->
<svg width="504pt" height="211pt"
 viewBox="0.00 0.00 504.00 211.00" xmlns="http://www.w3.org/2000/svg" xmlns:xlink="http://www.w3.org/1999/xlink">
<g id="graph0" class="graph" transform="scale(1 1) rotate(0) translate(4 207)">
<title>dependencies</title>
<polygon fill="white" stroke="transparent" points="-4,4 -4,-207 500,-207 500,4 -4,4"/>
<text text-anchor="start" x="227.01" y="-42.4" font-family="Times-12" font-weight="bold" font-size="14.00">Legend</text>
<polygon fill="#ffffb3" stroke="transparent" points="14,-10 14,-30 34,-30 34,-10 14,-10"/>
<text text-anchor="start" x="37.63" y="-15.4" font-family="Times-12" font-size="14.00"> &#160;Declarations</text>
<polygon fill="#8dd3c7" stroke="transparent" points="127,-10 127,-30 147,-30 147,-10 127,-10"/>
<text text-anchor="start" x="150.73" y="-15.4" font-family="Times-12" font-size="14.00"> &#160;Module</text>
<polygon fill="#80b1d3" stroke="transparent" points="213,-10 213,-30 233,-30 233,-10 213,-10"/>
<text text-anchor="start" x="236.78" y="-15.4" font-family="Times-12" font-size="14.00"> &#160;Bootstrap</text>
<polygon fill="#fdb462" stroke="transparent" points="310,-10 310,-30 330,-30 330,-10 310,-10"/>
<text text-anchor="start" x="333.67" y="-15.4" font-family="Times-12" font-size="14.00"> &#160;Providers</text>
<polygon fill="#fb8072" stroke="transparent" points="406,-10 406,-30 426,-30 426,-10 406,-10"/>
<text text-anchor="start" x="429.73" y="-15.4" font-family="Times-12" font-size="14.00"> &#160;Exports</text>
<g id="clust1" class="cluster">
<title>cluster_AppModule</title>
<polygon fill="none" stroke="black" stroke-dasharray="1,5" points="41.5,-70 41.5,-195 454.5,-195 454.5,-70 41.5,-70"/>
</g>
<g id="clust3" class="cluster">
<title>cluster_AppModule_imports</title>
<polygon fill="none" stroke="black" points="187.5,-78 187.5,-130 446.5,-130 446.5,-78 187.5,-78"/>
</g>
<g id="clust6" class="cluster">
<title>cluster_AppModule_providers</title>
<polygon fill="none" stroke="black" points="49.5,-78 49.5,-130 179.5,-130 179.5,-78 49.5,-78"/>
</g>
<!-- DatabaseModule -->
<g id="node1" class="node">
<title>DatabaseModule</title>
<polygon fill="#8dd3c7" stroke="black" points="438.85,-122 435.85,-126 414.85,-126 411.85,-122 328.15,-122 328.15,-86 438.85,-86 438.85,-122"/>
<text text-anchor="middle" x="383.5" y="-99.8" font-family="Times,serif" font-size="14.00">DatabaseModule</text>
</g>
<!-- AppModule -->
<g id="node3" class="node">
<title>AppModule</title>
<polygon fill="#8dd3c7" stroke="black" points="294.16,-187 291.16,-191 270.16,-191 267.16,-187 210.84,-187 210.84,-151 294.16,-151 294.16,-187"/>
<text text-anchor="middle" x="252.5" y="-164.8" font-family="Times,serif" font-size="14.00">AppModule</text>
</g>
<!-- DatabaseModule&#45;&gt;AppModule -->
<g id="edge1" class="edge">
<title>DatabaseModule&#45;&gt;AppModule</title>
<path fill="none" stroke="black" d="M383.5,-122.11C383.5,-141.34 383.5,-169 383.5,-169 383.5,-169 304.31,-169 304.31,-169"/>
<polygon fill="black" stroke="black" points="304.31,-165.5 294.31,-169 304.31,-172.5 304.31,-165.5"/>
</g>
<!-- RssParserModule -->
<g id="node2" class="node">
<title>RssParserModule</title>
<polygon fill="#8dd3c7" stroke="black" points="309.75,-122 306.75,-126 285.75,-126 282.75,-122 195.25,-122 195.25,-86 309.75,-86 309.75,-122"/>
<text text-anchor="middle" x="252.5" y="-99.8" font-family="Times,serif" font-size="14.00">RssParserModule</text>
</g>
<!-- RssParserModule&#45;&gt;AppModule -->
<g id="edge2" class="edge">
<title>RssParserModule&#45;&gt;AppModule</title>
<path fill="none" stroke="black" d="M252.5,-122.11C252.5,-122.11 252.5,-140.99 252.5,-140.99"/>
<polygon fill="black" stroke="black" points="249,-140.99 252.5,-150.99 256,-140.99 249,-140.99"/>
</g>
<!-- AppService -->
<g id="node4" class="node">
<title>AppService</title>
<ellipse fill="#fdb462" stroke="black" cx="114.5" cy="-104" rx="56.74" ry="18"/>
<text text-anchor="middle" x="114.5" y="-99.8" font-family="Times,serif" font-size="14.00">AppService</text>
</g>
<!-- AppService&#45;&gt;AppModule -->
<g id="edge3" class="edge">
<title>AppService&#45;&gt;AppModule</title>
<path fill="none" stroke="black" d="M114.5,-122.11C114.5,-141.34 114.5,-169 114.5,-169 114.5,-169 200.72,-169 200.72,-169"/>
<polygon fill="black" stroke="black" points="200.72,-172.5 210.72,-169 200.72,-165.5 200.72,-172.5"/>
</g>
</g>
</svg>
