<?xml version="1.0" encoding="UTF-8" standalone="no"?>
<!DOCTYPE svg PUBLIC "-//W3C//DTD SVG 1.1//EN"
 "http://www.w3.org/Graphics/SVG/1.1/DTD/svg11.dtd">
<!-- Generated by graphviz version 2.47.0 (20210316.0004)
 -->
<!-- Title: dependencies Pages: 1 -->
<svg width="504pt" height="284pt"
 viewBox="0.00 0.00 504.00 284.00" xmlns="http://www.w3.org/2000/svg" xmlns:xlink="http://www.w3.org/1999/xlink">
<g id="graph0" class="graph" transform="scale(1 1) rotate(0) translate(4 280)">
<title>dependencies</title>
<polygon fill="white" stroke="transparent" points="-4,4 -4,-280 500,-280 500,4 -4,4"/>
<text text-anchor="start" x="227.01" y="-42.4" font-family="Times-12" font-weight="bold" font-size="14.00">Legend</text>
<polygon fill="#ffffb3" stroke="transparent" points="14,-10 14,-30 34,-30 34,-10 14,-10"/>
<text text-anchor="start" x="37.63" y="-15.4" font-family="Times-12" font-size="14.00"> &#160;Declarations</text>
<polygon fill="#8dd3c7" stroke="transparent" points="127,-10 127,-30 147,-30 147,-10 127,-10"/>
<text text-anchor="start" x="150.73" y="-15.4" font-family="Times-12" font-size="14.00"> &#160;Module</text>
<polygon fill="#80b1d3" stroke="transparent" points="213,-10 213,-30 233,-30 233,-10 213,-10"/>
<text text-anchor="start" x="236.78" y="-15.4" font-family="Times-12" font-size="14.00"> &#160;Bootstrap</text>
<polygon fill="#fdb462" stroke="transparent" points="310,-10 310,-30 330,-30 330,-10 310,-10"/>
<text text-anchor="start" x="333.67" y="-15.4" font-family="Times-12" font-size="14.00"> &#160;Providers</text>
<polygon fill="#fb8072" stroke="transparent" points="406,-10 406,-30 426,-30 426,-10 406,-10"/>
<text text-anchor="start" x="429.73" y="-15.4" font-family="Times-12" font-size="14.00"> &#160;Exports</text>
<g id="clust1" class="cluster">
<title>cluster_RssParserModule</title>
<polygon fill="none" stroke="black" stroke-dasharray="1,5" points="53.5,-70 53.5,-268 442.5,-268 442.5,-70 53.5,-70"/>
</g>
<g id="clust4" class="cluster">
<title>cluster_RssParserModule_exports</title>
<polygon fill="none" stroke="black" points="175.5,-208 175.5,-260 307.5,-260 307.5,-208 175.5,-208"/>
</g>
<g id="clust6" class="cluster">
<title>cluster_RssParserModule_providers</title>
<polygon fill="none" stroke="black" points="61.5,-78 61.5,-130 434.5,-130 434.5,-78 61.5,-78"/>
</g>
<!-- RssParserService  -->
<g id="node1" class="node">
<title>RssParserService </title>
<polygon fill="#fb8072" stroke="black" points="299.68,-252 183.32,-252 183.32,-216 299.68,-216 299.68,-252"/>
<text text-anchor="middle" x="241.5" y="-229.8" font-family="Times,serif" font-size="14.00">RssParserService </text>
</g>
<!-- RssParserModule -->
<g id="node2" class="node">
<title>RssParserModule</title>
<polygon fill="#8dd3c7" stroke="black" points="298.75,-187 295.75,-191 274.75,-191 271.75,-187 184.25,-187 184.25,-151 298.75,-151 298.75,-187"/>
<text text-anchor="middle" x="241.5" y="-164.8" font-family="Times,serif" font-size="14.00">RssParserModule</text>
</g>
<!-- RssParserModule&#45;&gt;RssParserService  -->
<g id="edge1" class="edge">
<title>RssParserModule&#45;&gt;RssParserService </title>
<path fill="none" stroke="black" stroke-dasharray="5,2" d="M241.5,-187.11C241.5,-187.11 241.5,-205.99 241.5,-205.99"/>
<polygon fill="black" stroke="black" points="238,-205.99 241.5,-215.99 245,-205.99 238,-205.99"/>
</g>
<!-- RssParserRepository -->
<g id="node3" class="node">
<title>RssParserRepository</title>
<ellipse fill="#fdb462" stroke="black" cx="335.5" cy="-104" rx="91.49" ry="18"/>
<text text-anchor="middle" x="335.5" y="-99.8" font-family="Times,serif" font-size="14.00">RssParserRepository</text>
</g>
<!-- RssParserRepository&#45;&gt;RssParserModule -->
<g id="edge2" class="edge">
<title>RssParserRepository&#45;&gt;RssParserModule</title>
<path fill="none" stroke="black" d="M271.44,-117.15C271.44,-117.15 271.44,-140.69 271.44,-140.69"/>
<polygon fill="black" stroke="black" points="267.94,-140.69 271.44,-150.69 274.94,-140.69 267.94,-140.69"/>
</g>
<!-- RssParserService -->
<g id="node4" class="node">
<title>RssParserService</title>
<ellipse fill="#fdb462" stroke="black" cx="147.5" cy="-104" rx="78.14" ry="18"/>
<text text-anchor="middle" x="147.5" y="-99.8" font-family="Times,serif" font-size="14.00">RssParserService</text>
</g>
<!-- RssParserService&#45;&gt;RssParserModule -->
<g id="edge3" class="edge">
<title>RssParserService&#45;&gt;RssParserModule</title>
<path fill="none" stroke="black" d="M204.85,-116.23C204.85,-116.23 204.85,-140.68 204.85,-140.68"/>
<polygon fill="black" stroke="black" points="201.35,-140.68 204.85,-150.68 208.35,-140.68 201.35,-140.68"/>
</g>
</g>
</svg>
