<?xml version="1.0" encoding="UTF-8" standalone="no"?>
<!DOCTYPE svg PUBLIC "-//W3C//DTD SVG 1.1//EN"
 "http://www.w3.org/Graphics/SVG/1.1/DTD/svg11.dtd">
<!-- Generated by graphviz version 2.47.0 (20210316.0004)
 -->
<!-- Title: dependencies Pages: 1 -->
<svg width="553pt" height="287pt"
 viewBox="0.00 0.00 553.00 287.00" xmlns="http://www.w3.org/2000/svg" xmlns:xlink="http://www.w3.org/1999/xlink">
<g id="graph0" class="graph" transform="scale(1 1) rotate(0) translate(4 283)">
<title>dependencies</title>
<polygon fill="white" stroke="transparent" points="-4,4 -4,-283 549,-283 549,4 -4,4"/>
<text text-anchor="start" x="251.51" y="-42.4" font-family="Times-12" font-weight="bold" font-size="14.00">Legend</text>
<polygon fill="#ffffb3" stroke="transparent" points="38.5,-10 38.5,-30 58.5,-30 58.5,-10 38.5,-10"/>
<text text-anchor="start" x="62.13" y="-15.4" font-family="Times-12" font-size="14.00"> &#160;Declarations</text>
<polygon fill="#8dd3c7" stroke="transparent" points="151.5,-10 151.5,-30 171.5,-30 171.5,-10 151.5,-10"/>
<text text-anchor="start" x="175.23" y="-15.4" font-family="Times-12" font-size="14.00"> &#160;Module</text>
<polygon fill="#80b1d3" stroke="transparent" points="237.5,-10 237.5,-30 257.5,-30 257.5,-10 237.5,-10"/>
<text text-anchor="start" x="261.28" y="-15.4" font-family="Times-12" font-size="14.00"> &#160;Bootstrap</text>
<polygon fill="#fdb462" stroke="transparent" points="334.5,-10 334.5,-30 354.5,-30 354.5,-10 334.5,-10"/>
<text text-anchor="start" x="358.17" y="-15.4" font-family="Times-12" font-size="14.00"> &#160;Providers</text>
<polygon fill="#fb8072" stroke="transparent" points="430.5,-10 430.5,-30 450.5,-30 450.5,-10 430.5,-10"/>
<text text-anchor="start" x="454.23" y="-15.4" font-family="Times-12" font-size="14.00"> &#160;Exports</text>
<g id="clust1" class="cluster">
<title>cluster_AppModule</title>
<polygon fill="none" stroke="black" stroke-dasharray="1,5" points="79,-146 79,-271 492,-271 492,-146 79,-146"/>
</g>
<g id="clust3" class="cluster">
<title>cluster_AppModule_imports</title>
<polygon fill="none" stroke="black" points="225,-154 225,-206 484,-206 484,-154 225,-154"/>
</g>
<g id="clust6" class="cluster">
<title>cluster_AppModule_providers</title>
<polygon fill="none" stroke="black" points="87,-154 87,-206 217,-206 217,-154 87,-154"/>
</g>
<g id="clust13" class="cluster">
<title>cluster_RssParserModule</title>
<polygon fill="none" stroke="black" stroke-dasharray="1,5" points="8,-70 8,-138 537,-138 537,-70 8,-70"/>
</g>
<g id="clust16" class="cluster">
<title>cluster_RssParserModule_exports</title>
<polygon fill="none" stroke="black" points="397,-78 397,-130 529,-130 529,-78 397,-78"/>
</g>
<g id="clust18" class="cluster">
<title>cluster_RssParserModule_providers</title>
<polygon fill="none" stroke="black" points="16,-78 16,-130 389,-130 389,-78 16,-78"/>
</g>
<!-- DatabaseModule -->
<g id="node1" class="node">
<title>DatabaseModule</title>
<polygon fill="#8dd3c7" stroke="black" points="476.35,-198 473.35,-202 452.35,-202 449.35,-198 365.65,-198 365.65,-162 476.35,-162 476.35,-198"/>
<text text-anchor="middle" x="421" y="-175.8" font-family="Times,serif" font-size="14.00">DatabaseModule</text>
</g>
<!-- AppModule -->
<g id="node3" class="node">
<title>AppModule</title>
<polygon fill="#8dd3c7" stroke="black" points="331.66,-263 328.66,-267 307.66,-267 304.66,-263 248.34,-263 248.34,-227 331.66,-227 331.66,-263"/>
<text text-anchor="middle" x="290" y="-240.8" font-family="Times,serif" font-size="14.00">AppModule</text>
</g>
<!-- DatabaseModule&#45;&gt;AppModule -->
<g id="edge1" class="edge">
<title>DatabaseModule&#45;&gt;AppModule</title>
<path fill="none" stroke="black" d="M421,-198.11C421,-217.34 421,-245 421,-245 421,-245 341.81,-245 341.81,-245"/>
<polygon fill="black" stroke="black" points="341.81,-241.5 331.81,-245 341.81,-248.5 341.81,-241.5"/>
</g>
<!-- RssParserModule -->
<g id="node2" class="node">
<title>RssParserModule</title>
<polygon fill="#8dd3c7" stroke="black" points="347.25,-198 344.25,-202 323.25,-202 320.25,-198 232.75,-198 232.75,-162 347.25,-162 347.25,-198"/>
<text text-anchor="middle" x="290" y="-175.8" font-family="Times,serif" font-size="14.00">RssParserModule</text>
</g>
<!-- RssParserModule&#45;&gt;AppModule -->
<g id="edge2" class="edge">
<title>RssParserModule&#45;&gt;AppModule</title>
<path fill="none" stroke="black" d="M290,-198.11C290,-198.11 290,-216.99 290,-216.99"/>
<polygon fill="black" stroke="black" points="286.5,-216.99 290,-226.99 293.5,-216.99 286.5,-216.99"/>
</g>
<!-- RssParserService  -->
<g id="node5" class="node">
<title>RssParserService </title>
<polygon fill="#fb8072" stroke="black" points="521.18,-122 404.82,-122 404.82,-86 521.18,-86 521.18,-122"/>
<text text-anchor="middle" x="463" y="-99.8" font-family="Times,serif" font-size="14.00">RssParserService </text>
</g>
<!-- RssParserModule&#45;&gt;RssParserService  -->
<g id="edge4" class="edge">
<title>RssParserModule&#45;&gt;RssParserService </title>
<path fill="none" stroke="black" stroke-dasharray="5,2" d="M318.69,-161.97C318.69,-155.15 318.69,-149 318.69,-149 318.69,-149 440.54,-149 440.54,-149 440.54,-149 440.54,-132.04 440.54,-132.04"/>
<polygon fill="black" stroke="black" points="444.04,-132.04 440.54,-122.04 437.04,-132.04 444.04,-132.04"/>
</g>
<!-- AppService -->
<g id="node4" class="node">
<title>AppService</title>
<ellipse fill="#fdb462" stroke="black" cx="152" cy="-180" rx="56.74" ry="18"/>
<text text-anchor="middle" x="152" y="-175.8" font-family="Times,serif" font-size="14.00">AppService</text>
</g>
<!-- AppService&#45;&gt;AppModule -->
<g id="edge3" class="edge">
<title>AppService&#45;&gt;AppModule</title>
<path fill="none" stroke="black" d="M152,-198.11C152,-217.34 152,-245 152,-245 152,-245 238.22,-245 238.22,-245"/>
<polygon fill="black" stroke="black" points="238.22,-248.5 248.22,-245 238.22,-241.5 238.22,-248.5"/>
</g>
<!-- RssParserRepository -->
<g id="node6" class="node">
<title>RssParserRepository</title>
<ellipse fill="#fdb462" stroke="black" cx="290" cy="-104" rx="91.49" ry="18"/>
<text text-anchor="middle" x="290" y="-99.8" font-family="Times,serif" font-size="14.00">RssParserRepository</text>
</g>
<!-- RssParserRepository&#45;&gt;RssParserModule -->
<g id="edge5" class="edge">
<title>RssParserRepository&#45;&gt;RssParserModule</title>
<path fill="none" stroke="black" d="M290,-122.01C290,-122.01 290,-151.85 290,-151.85"/>
<polygon fill="black" stroke="black" points="286.5,-151.85 290,-161.85 293.5,-151.85 286.5,-151.85"/>
</g>
<!-- RssParserService -->
<g id="node7" class="node">
<title>RssParserService</title>
<ellipse fill="#fdb462" stroke="black" cx="102" cy="-104" rx="78.14" ry="18"/>
<text text-anchor="middle" x="102" y="-99.8" font-family="Times,serif" font-size="14.00">RssParserService</text>
</g>
<!-- RssParserService&#45;&gt;RssParserModule -->
<g id="edge6" class="edge">
<title>RssParserService&#45;&gt;RssParserModule</title>
<path fill="none" stroke="black" d="M137.73,-120.37C137.73,-128.25 137.73,-136 137.73,-136 137.73,-136 261.31,-136 261.31,-136 261.31,-136 261.31,-151.85 261.31,-151.85"/>
<polygon fill="black" stroke="black" points="257.81,-151.85 261.31,-161.85 264.81,-151.85 257.81,-151.85"/>
</g>
</g>
</svg>
